<?xml version="1.0" encoding="UTF-8" standalone="no"?><!DOCTYPE svg PUBLIC "-//W3C//DTD SVG 1.1//EN" "http://www.w3.org/Graphics/SVG/1.1/DTD/svg11.dtd"><!-- Generated by graphviz version 2.40.1 (20161225.0304)
 --><!-- Title: DecisionTree Pages: 1 --><svg xmlns="http://www.w3.org/2000/svg" xmlns:xlink="http://www.w3.org/1999/xlink" width="796pt" height="425pt" viewBox="0.00 0.00 796.03 424.80">
<g id="graph0" class="graph" transform="scale(1 1) rotate(0) translate(4 420.8)">
<title>DecisionTree</title>
<polygon fill="#ffffff" stroke="transparent" points="-4,4 -4,-420.8 792.0253,-420.8 792.0253,4 -4,4"/>
<!-- Start -->
<g id="node1" class="node">
<title>Start</title>
<ellipse fill="#8fb5b5" stroke="#000000" cx="439.3598" cy="-398.8" rx="29.049" ry="18"/>
<text text-anchor="middle" x="439.3598" y="-394.6" font-family="Times,serif" font-size="14.00" fill="#000000">Start</text>
</g>
<!-- UserInput -->
<g id="node2" class="node">
<title>UserInput</title>
<polygon fill="none" stroke="#000000" points="577.8162,-343.8 300.9034,-343.8 300.9034,-307.8 577.8162,-307.8 577.8162,-343.8"/>
<text text-anchor="middle" x="439.3598" y="-321.6" font-family="Times,serif" font-size="14.00" fill="#000000">Enter number of alternatives and market states</text>
</g>
<!-- Start&#45;&gt;UserInput -->
<g id="edge1" class="edge">
<title>Start-&gt;UserInput</title>
<path fill="none" stroke="#000000" d="M439.3598,-380.7551C439.3598,-372.6828 439.3598,-362.9764 439.3598,-353.9817"/>
<polygon fill="#000000" stroke="#000000" points="442.8599,-353.8903 439.3598,-343.8904 435.8599,-353.8904 442.8599,-353.8903"/>
</g>
<!-- AltLoop -->
<g id="node3" class="node">
<title>AltLoop</title>
<polygon fill="#8fb5b5" stroke="#000000" points="439.3598,-270.8 315.2546,-252.8 439.3598,-234.8 563.465,-252.8 439.3598,-270.8"/>
<text text-anchor="middle" x="439.3598" y="-248.6" font-family="Times,serif" font-size="14.00" fill="#000000">For each alternative</text>
</g>
<!-- UserInput&#45;&gt;AltLoop -->
<g id="edge2" class="edge">
<title>UserInput-&gt;AltLoop</title>
<path fill="none" stroke="#000000" d="M439.3598,-307.7551C439.3598,-299.6828 439.3598,-289.9764 439.3598,-280.9817"/>
<polygon fill="#000000" stroke="#000000" points="442.8599,-280.8903 439.3598,-270.8904 435.8599,-280.8904 442.8599,-280.8903"/>
</g>
<!-- AltName -->
<g id="node4" class="node">
<title>AltName</title>
<polygon fill="none" stroke="#000000" points="142.5797,-197.8 .1399,-197.8 .1399,-161.8 142.5797,-161.8 142.5797,-197.8"/>
<text text-anchor="middle" x="71.3598" y="-175.6" font-family="Times,serif" font-size="14.00" fill="#000000">Enter alternative name</text>
</g>
<!-- AltLoop&#45;&gt;AltName -->
<g id="edge3" class="edge">
<title>AltLoop-&gt;AltName</title>
<path fill="none" stroke="#000000" d="M354.0665,-247.1285C299.2238,-242.1408 226.8045,-233.0384 164.3598,-216.8 149.6025,-212.9624 134.0351,-207.4085 119.9469,-201.7656"/>
<polygon fill="#000000" stroke="#000000" points="121.0377,-198.4299 110.458,-197.8648 118.3762,-204.9042 121.0377,-198.4299"/>
</g>
<!-- Maximax -->
<g id="node7" class="node">
<title>Maximax</title>
<polygon fill="none" stroke="#000000" points="703.0157,-197.8 633.7039,-197.8 633.7039,-161.8 703.0157,-161.8 703.0157,-197.8"/>
<text text-anchor="middle" x="668.3598" y="-175.6" font-family="Times,serif" font-size="14.00" fill="#000000">Maximax</text>
</g>
<!-- AltLoop&#45;&gt;Maximax -->
<g id="edge8" class="edge">
<title>AltLoop-&gt;Maximax</title>
<path fill="none" stroke="#000000" d="M483.1117,-241.1154C518.7106,-231.3123 570.3753,-216.4158 623.7805,-197.8456"/>
<polygon fill="#000000" stroke="#000000" points="625.1408,-201.0775 633.4158,-194.4613 622.821,-194.4731 625.1408,-201.0775"/>
</g>
<!-- Maximin -->
<g id="node8" class="node">
<title>Maximin</title>
<polygon fill="none" stroke="#000000" points="788.1916,-197.8 720.528,-197.8 720.528,-161.8 788.1916,-161.8 788.1916,-197.8"/>
<text text-anchor="middle" x="754.3598" y="-175.6" font-family="Times,serif" font-size="14.00" fill="#000000">Maximin</text>
</g>
<!-- AltLoop&#45;&gt;Maximin -->
<g id="edge9" class="edge">
<title>AltLoop-&gt;Maximin</title>
<path fill="none" stroke="#000000" d="M502.3525,-243.8908C555.9919,-235.4522 635.0388,-221.0021 710.94,-197.9556"/>
<polygon fill="#000000" stroke="#000000" points="712.1391,-201.2485 720.6593,-194.9512 710.0717,-194.5607 712.1391,-201.2485"/>
</g>
<!-- Hurwicz -->
<g id="node9" class="node">
<title>Hurwicz</title>
<polygon fill="none" stroke="#000000" points="371.5537,-197.8 307.1659,-197.8 307.1659,-161.8 371.5537,-161.8 371.5537,-197.8"/>
<text text-anchor="middle" x="339.3598" y="-175.6" font-family="Times,serif" font-size="14.00" fill="#000000">Hurwicz</text>
</g>
<!-- AltLoop&#45;&gt;Hurwicz -->
<g id="edge10" class="edge">
<title>AltLoop-&gt;Hurwicz</title>
<path fill="none" stroke="#000000" d="M418.6397,-237.6744C405.3174,-227.949 387.713,-215.0978 372.4778,-203.9762"/>
<polygon fill="#000000" stroke="#000000" points="374.4404,-201.0755 364.2999,-198.0062 370.3131,-206.7293 374.4404,-201.0755"/>
</g>
<!-- EquallyLikely -->
<g id="node10" class="node">
<title>EquallyLikely</title>
<polygon fill="none" stroke="#000000" points="488.9574,-197.8 389.7622,-197.8 389.7622,-161.8 488.9574,-161.8 488.9574,-197.8"/>
<text text-anchor="middle" x="439.3598" y="-175.6" font-family="Times,serif" font-size="14.00" fill="#000000">Equally Likely</text>
</g>
<!-- AltLoop&#45;&gt;EquallyLikely -->
<g id="edge11" class="edge">
<title>AltLoop-&gt;EquallyLikely</title>
<path fill="none" stroke="#000000" d="M439.3598,-234.7551C439.3598,-226.6828 439.3598,-216.9764 439.3598,-207.9817"/>
<polygon fill="#000000" stroke="#000000" points="442.8599,-207.8903 439.3598,-197.8904 435.8599,-207.8904 442.8599,-207.8903"/>
</g>
<!-- MinimaxRegret -->
<g id="node11" class="node">
<title>MinimaxRegret</title>
<polygon fill="none" stroke="#000000" points="615.5079,-197.8 507.2117,-197.8 507.2117,-161.8 615.5079,-161.8 615.5079,-197.8"/>
<text text-anchor="middle" x="561.3598" y="-175.6" font-family="Times,serif" font-size="14.00" fill="#000000">Minimax Regret</text>
</g>
<!-- AltLoop&#45;&gt;MinimaxRegret -->
<g id="edge12" class="edge">
<title>AltLoop-&gt;MinimaxRegret</title>
<path fill="none" stroke="#000000" d="M463.7551,-238.2028C480.4433,-228.2172 502.9318,-214.761 522.1164,-203.2817"/>
<polygon fill="#000000" stroke="#000000" points="524.1624,-206.1362 530.9464,-197.9982 520.5682,-200.1294 524.1624,-206.1362"/>
</g>
<!-- StateLoop -->
<g id="node5" class="node">
<title>StateLoop</title>
<polygon fill="#8fb5b5" stroke="#000000" points="145.3598,-124.8 12.8033,-106.8 145.3598,-88.8 277.9163,-106.8 145.3598,-124.8"/>
<text text-anchor="middle" x="145.3598" y="-102.6" font-family="Times,serif" font-size="14.00" fill="#000000">For each market state</text>
</g>
<!-- AltName&#45;&gt;StateLoop -->
<g id="edge4" class="edge">
<title>AltName-&gt;StateLoop</title>
<path fill="none" stroke="#000000" d="M89.6519,-161.7551C99.433,-152.1061 111.5811,-140.1222 122.0345,-129.8101"/>
<polygon fill="#000000" stroke="#000000" points="124.6276,-132.1685 129.2887,-122.654 119.7116,-127.1851 124.6276,-132.1685"/>
</g>
<!-- StateLoop&#45;&gt;AltLoop -->
<g id="edge7" class="edge">
<title>StateLoop-&gt;AltLoop</title>
<path fill="none" stroke="#000000" d="M148.5521,-124.4372C153.2685,-145.2242 164.1573,-179.2747 187.1914,-197.8 213.5822,-219.0249 296.7294,-234.3607 360.4043,-243.3618"/>
<polygon fill="#000000" stroke="#000000" points="360.0593,-246.8474 370.4448,-244.752 361.0194,-239.9135 360.0593,-246.8474"/>
<text text-anchor="middle" x="242.944" y="-175.6" font-family="Times,serif" font-size="14.00" fill="#000000">For each alternative</text>
</g>
<!-- ExpectedValue -->
<g id="node6" class="node">
<title>ExpectedValue</title>
<polygon fill="none" stroke="#000000" points="213.2476,-36 79.472,-36 79.472,0 213.2476,0 213.2476,-36"/>
<text text-anchor="middle" x="146.3598" y="-13.8" font-family="Times,serif" font-size="14.00" fill="#000000">Enter expected value</text>
</g>
<!-- StateLoop&#45;&gt;ExpectedValue -->
<g id="edge5" class="edge">
<title>StateLoop-&gt;ExpectedValue</title>
<path fill="none" stroke="#000000" d="M143.9648,-88.7153C143.3564,-78.5195 142.8795,-65.5483 143.3598,-54 143.461,-51.5679 143.6004,-49.0458 143.7642,-46.5168"/>
<polygon fill="#000000" stroke="#000000" points="147.273,-46.5317 144.5389,-36.2957 140.293,-46.0026 147.273,-46.5317"/>
</g>
<!-- ExpectedValue&#45;&gt;StateLoop -->
<g id="edge6" class="edge">
<title>ExpectedValue-&gt;StateLoop</title>
<path fill="none" stroke="#000000" d="M146.1563,-36.072C146.0194,-48.2243 145.8362,-64.4958 145.68,-78.368"/>
<polygon fill="#000000" stroke="#000000" points="142.1799,-78.3618 145.567,-88.4006 149.1795,-78.4407 142.1799,-78.3618"/>
<text text-anchor="middle" x="206.4163" y="-58.2" font-family="Times,serif" font-size="14.00" fill="#000000">For each market state</text>
</g>
<!-- DisplayResults -->
<g id="node12" class="node">
<title>DisplayResults</title>
<polygon fill="none" stroke="#000000" points="696.4599,-124.8 426.2597,-124.8 426.2597,-88.8 696.4599,-88.8 696.4599,-124.8"/>
<text text-anchor="middle" x="561.3598" y="-102.6" font-family="Times,serif" font-size="14.00" fill="#000000">Display selected alternative for each criterion</text>
</g>
<!-- Maximax&#45;&gt;DisplayResults -->
<g id="edge13" class="edge">
<title>Maximax-&gt;DisplayResults</title>
<path fill="none" stroke="#000000" d="M641.9104,-161.7551C628.1494,-152.3667 611.1482,-140.7678 596.3167,-130.6491"/>
<polygon fill="#000000" stroke="#000000" points="598.109,-127.6349 587.8758,-124.8904 594.1639,-133.4174 598.109,-127.6349"/>
</g>
<!-- Maximin&#45;&gt;DisplayResults -->
<g id="edge14" class="edge">
<title>Maximin-&gt;DisplayResults</title>
<path fill="none" stroke="#000000" d="M720.5008,-165.0977C717.7541,-163.9634 715.0151,-162.8516 712.3598,-161.8 683.0068,-150.1747 650.1001,-138.0806 622.5164,-128.2034"/>
<polygon fill="#000000" stroke="#000000" points="623.591,-124.8708 612.9963,-124.8066 621.2386,-131.4637 623.591,-124.8708"/>
</g>
<!-- Hurwicz&#45;&gt;DisplayResults -->
<g id="edge15" class="edge">
<title>Hurwicz-&gt;DisplayResults</title>
<path fill="none" stroke="#000000" d="M371.8906,-165.1019C374.7379,-163.9423 377.5893,-162.825 380.3598,-161.8 414.4152,-149.2008 452.8155,-137.2256 485.4556,-127.6854"/>
<polygon fill="#000000" stroke="#000000" points="486.7596,-130.9515 495.3891,-124.8049 484.81,-124.2285 486.7596,-130.9515"/>
</g>
<!-- EquallyLikely&#45;&gt;DisplayResults -->
<g id="edge16" class="edge">
<title>EquallyLikely-&gt;DisplayResults</title>
<path fill="none" stroke="#000000" d="M469.5171,-161.7551C485.5005,-152.1912 505.3177,-140.3334 522.448,-130.0833"/>
<polygon fill="#000000" stroke="#000000" points="524.3426,-133.0284 531.1266,-124.8904 520.7483,-127.0216 524.3426,-133.0284"/>
</g>
<!-- MinimaxRegret&#45;&gt;DisplayResults -->
<g id="edge17" class="edge">
<title>MinimaxRegret-&gt;DisplayResults</title>
<path fill="none" stroke="#000000" d="M561.3598,-161.7551C561.3598,-153.6828 561.3598,-143.9764 561.3598,-134.9817"/>
<polygon fill="#000000" stroke="#000000" points="564.8599,-134.8903 561.3598,-124.8904 557.8599,-134.8904 564.8599,-134.8903"/>
</g>
<!-- End -->
<g id="node13" class="node">
<title>End</title>
<ellipse fill="#8fb5b5" stroke="#000000" cx="561.3598" cy="-18" rx="27" ry="18"/>
<text text-anchor="middle" x="561.3598" y="-13.8" font-family="Times,serif" font-size="14.00" fill="#000000">End</text>
</g>
<!-- DisplayResults&#45;&gt;End -->
<g id="edge18" class="edge">
<title>DisplayResults-&gt;End</title>
<path fill="none" stroke="#000000" d="M561.3598,-88.4006C561.3598,-76.2949 561.3598,-60.2076 561.3598,-46.4674"/>
<polygon fill="#000000" stroke="#000000" points="564.8599,-46.072 561.3598,-36.072 557.8599,-46.0721 564.8599,-46.072"/>
</g>
</g>
</svg>